<mxfile host="app.diagrams.net" modified="2020-10-16T22:43:03.046Z" agent="5.0 (Macintosh; Intel Mac OS X 10_15_6) AppleWebKit/537.36 (KHTML, like Gecko) Chrome/85.0.4183.121 Safari/537.36" etag="21tbmx8fRi4EUp6h3pvo" version="13.8.0" type="github">
  <diagram name="Page-1" id="90a13364-a465-7bf4-72fc-28e22215d7a0">
    <mxGraphModel dx="1082" dy="695" grid="1" gridSize="10" guides="1" tooltips="1" connect="1" arrows="1" fold="1" page="1" pageScale="1.5" pageWidth="1169" pageHeight="826" background="#ffffff" math="0" shadow="0">
      <root>
        <mxCell id="0" style=";html=1;" />
        <mxCell id="1" style=";html=1;" parent="0" />
        <mxCell id="3a17f1ce550125da-2" value="Inventory Management System (IMS)&lt;br&gt;&lt;br&gt;&lt;ol&gt;&lt;li style=&quot;text-align: left&quot;&gt;Main Control&lt;/li&gt;&lt;li style=&quot;text-align: left&quot;&gt;Login&lt;/li&gt;&lt;li style=&quot;text-align: left&quot;&gt;Invoice Management&lt;/li&gt;&lt;li style=&quot;text-align: left&quot;&gt;Client Management&lt;/li&gt;&lt;li style=&quot;text-align: left&quot;&gt;Inventory&lt;/li&gt;&lt;/ol&gt;&lt;div style=&quot;text-align: left&quot;&gt;&lt;br&gt;&lt;/div&gt;" style="whiteSpace=wrap;html=1;shadow=1;fontSize=18;fillColor=#f5f5f5;strokeColor=#666666;" parent="1" vertex="1">
          <mxGeometry x="787" y="420" width="193" height="280" as="geometry" />
        </mxCell>
        <mxCell id="3a17f1ce550125da-8" value="User&amp;nbsp;" style="whiteSpace=wrap;html=1;shadow=1;fontSize=18;fillColor=#f5f5f5;strokeColor=#666666;" parent="1" vertex="1">
          <mxGeometry x="560" y="444" width="120" height="150" as="geometry" />
        </mxCell>
        <mxCell id="pW-qv7Q5chrhLU7T_gP_-1" value="" style="shape=flexArrow;endArrow=classic;html=1;" edge="1" parent="1">
          <mxGeometry width="50" height="50" relative="1" as="geometry">
            <mxPoint x="690" y="518.58" as="sourcePoint" />
            <mxPoint x="770" y="518.58" as="targetPoint" />
          </mxGeometry>
        </mxCell>
        <mxCell id="pW-qv7Q5chrhLU7T_gP_-2" value="" style="shape=flexArrow;endArrow=classic;html=1;" edge="1" parent="1">
          <mxGeometry width="50" height="50" relative="1" as="geometry">
            <mxPoint x="1000" y="518.5" as="sourcePoint" />
            <mxPoint x="1080" y="518.5" as="targetPoint" />
          </mxGeometry>
        </mxCell>
        <mxCell id="pW-qv7Q5chrhLU7T_gP_-3" value="GUI" style="whiteSpace=wrap;html=1;shadow=1;fontSize=18;fillColor=#f5f5f5;strokeColor=#666666;" vertex="1" parent="1">
          <mxGeometry x="1090" y="444" width="120" height="150" as="geometry" />
        </mxCell>
        <mxCell id="pW-qv7Q5chrhLU7T_gP_-4" value="Main Control" style="ellipse;whiteSpace=wrap;html=1;" vertex="1" parent="1">
          <mxGeometry x="460" y="800" width="120" height="80" as="geometry" />
        </mxCell>
        <mxCell id="pW-qv7Q5chrhLU7T_gP_-6" value="User" style="rounded=0;whiteSpace=wrap;html=1;" vertex="1" parent="1">
          <mxGeometry x="460" y="980" width="120" height="60" as="geometry" />
        </mxCell>
      </root>
    </mxGraphModel>
  </diagram>
</mxfile>
